<mxfile host="app.diagrams.net" agent="Mozilla/5.0 (Windows NT 10.0; Win64; x64) AppleWebKit/537.36 (KHTML, like Gecko) Chrome/128.0.0.0 Safari/537.36" version="24.7.8">
  <diagram name="PÃ¡gina-1" id="nG3vir5TlHy3oCZd_6i_">
    <mxGraphModel dx="2140" dy="1822" grid="1" gridSize="12" guides="1" tooltips="1" connect="1" arrows="1" fold="1" page="1" pageScale="1" pageWidth="827" pageHeight="1169" math="0" shadow="0">
      <root>
        <mxCell id="0" />
        <mxCell id="1" parent="0" />
        <mxCell id="v0XENPAWPi0MFYCise0P-9" value="" style="shape=ellipse;html=1;dashed=0;whiteSpace=wrap;aspect=fixed;perimeter=ellipsePerimeter;shadow=1;labelBackgroundColor=none;" vertex="1" parent="1">
          <mxGeometry x="84" y="-20" width="655" height="655" as="geometry" />
        </mxCell>
        <mxCell id="v0XENPAWPi0MFYCise0P-2" value="" style="shape=image;verticalLabelPosition=bottom;labelBackgroundColor=none;verticalAlign=top;aspect=fixed;imageAspect=0;image=data:image/png,iVBORw0KGgoAAAANSUhEUgAAALkAAAC6CAMAAADF5xzAAAAAvVBMVEX///9bd8yJiYn6+vqMjIy9vb2+wcxadMKFhYV5hq7e3+CytLdVdM25ublUcMP19fX+/flOb8/Nzc2Wn8D49/Kcoravsrp+iKvV1dXo6Oi4vMuNmb/v7+/Dw8OSkpKlp6qdn6LHyM1/lNbd4/TU2/Hu7OZgd73h4NpmgM/AyuqVpt1perTL0+6Nn9qoteJyidK0wOZvf7NOTk54eHhHZ8Dk5/GrscY9YMVNZ7SIj6ZXbbFZWlsqKipra2uerN1le7iVAAAUw0lEQVR4nM1dC2ObOBKODbQsj1LTphF3vIJJA5RXH+7u3d7y/3/WzYg3BiE7OO233TixsfQhZkYjaUa6u7sJFGLcpuCbw5Q90/7VJK4Ckfeyb9qC8KuJXALBVoip7kVxL/oqQHJMQuzf+hYEQzFVzwXKexmIi/gLhbyHP11PNRXjt7sBwbBN3XdlGSjXbIfM6zf28Knrq6b9+9A3LGDdkIYX0XV9z0dp2fseSIvneb7rinhBTd/XTes3sDyCYnouSkfTpCDUimUb5l6URccyBEEwDNu2QPQdtX0o8t71HOXXkreBtlg3JZAhtt3SIbKsWhOpAJEijuo2EuX60i8zm4LiiY0G+s7k+ZuetfAtw3J81FkUfU/5BSIvWI77HRtbdHVyaf0C0etH9V2Upk/mxhAUyceHLvo6ue6Z20T3RbxzV3rNhldAWlEFX9bDg5LAIxNlV1U2Y8aGpbrwpOW9/mLbZlg6WFHQVnVJK7aErVPtcqVtrJohubQ89daGxjBdGcXb2a4i20GBl13zlgZeIB7YM9ndkDfCdlws1rvYRvHXoLtoT6TthdJy0M64+o1ERqGKudjFvAyWR1X1FlbGkMCC7V1yg6JrEHigoqxuLu2Kj5p5q8dJYeuoqf62zS6YLhZ6OxWqayG0eZwNazF0KuG39+0MFY2Muhl120O/1HwN90Iw0RHzN7ICCnY+G4vfMiwfu6VNakOdv33n3MNW0bnYwIYRlLwtlWYVgoNVvlg4HRwBvCpxFHZa6cvKoMRv1/ssQUEJlV7QXoIOunmTHnkNSF3Wr6fu/CriYGKQ+tUC44idNfxI3vBhUbEE7hI+0usVnGy6UsHIvnPe3n/6/JYPn+8XKvv0hbuE2umycLBkvpD4nfpD27XQNPq71v5F/+36j+/HpTS+3ydtcE1dCv0a/foYh6YESv0K64DeeEv84x996UVZRfSvKKn5a7sh8Z329WlYjC7RaY33f0z4RXkeaNEuyqa8oYQvTz0F8WI1s92BOXz60pWvJcdjkAdJXgZlksdFWQZpksU9Aa14tpUORAIQW3j6OmFYpFVYlHl1LKCQCfXPz029BAcbF/owAgxR5E7IRszTtDomcXnM0zg/5ccyC+M8LAfMCdGlMXRlylwL4ugEReVhlIbJ5K465ncmsPAv0lJBH/UEQ+bZKSzCY1keqzIP0iCNkzCuwnzY5oqDMOlP5O0owvNZm4fHPDum2bEKw6nE9MzvHPSZLqH+KI++MGAOCnWotav5sZuoKDCvb55Ougm6ZKKknjHfaYdDXUit8cOPB8wF9TKzjqrhD7xDyryA/5BjVDT1gYI1FWsFfZOaiZq5oTg6/apZz3hS5pwlDJnf2f4lWmpAJ7AfXg3MtSLepUGQaUFaRUkUZFEWxFmRFEUS7JIwgDcDrcoiyhx4g5QolmUp+MOybJBzKEELgwxKiLGEIiighCqA37CENMuhRC2BEkbM7xRc++AdVqtD7eyYh4cwj0PQxzKNy7gswypMkjSOyzCBt8sqjvM4DrRd8Ww5VC+dDhKhzMPDsYJL07KEbwHSKk1A13MoAdQ+rqDcEksYMQc3W5RVPuIKXOqNtAKlJTpVJ6ijOqJZydMgSUPQrzhNg1MZQtU58D6GlLlRGxe9BwFp0aJjYldlmp/K8gRXB1WKug3tkB3zMM3TvITSUF3HzKmZ45IX2xVHQt4w14oygkccBXkUxQF9DbKggneyqALxKYpgl4YgrF+wXuJI+rCEj1/7ErK8iMqswBJAUKoAxGZXZSA9RRHFUMKEORVekWNMhgbxzCO/P6AxqLXp0FiXA75zoFp1oG/8iKoALvs39ZgMMrYI91pXAl5NDcuhKQ7KqEvQQFmg93/4OK6dgOfH4fHCsPP8MuWPdxoHsP6v5K5eMx9r1fMDbwnvvk7bTdB5hjeGtxdnOlzr58MfXLgHibRwZdGyjatKeLg/l2kqwGv2Bfvb2dsTOIF3X9uWs6ZbBiHGqIQpyPeJtTsHOlr+ys2tQ6HM+TttQ9dX5v09ee+ylVSV9+IGE0wmMr9gzY1IK9Qtcc826hbIisRd3zJsMOjgmXPPKAvgDbOlQQJPitWk+uX+8DyIY5m65HCXhdSZM8Xov3jLHyuu+MIJmhaGVUs7t68kmCsXw3B+2fMCl3Lae74I4L/o/JNsK9QNbPSlwtC53abJ29qADfcyteBIzDU/Z3kZSQAtWDE9lwJ9L25hh0fEml8x3P3SrJfl7zcxLCMoYGV4qSuSzurjHXmud0dAk8vbrwOjsPPqKWGKurBksgV8GldQW4PtcHdKoBeOcbfYehJ0k3Mfgm/AtPVXA90YzqkqG65UFoXdEud9Km8ve7cJGjCgU+IUGCKBcC0xN9TZ3siCUfNV848cQOvI1eq2yXTVzP2cWIAQbdkLjbHaQ/aXsZjbc9ZPgC7qFvrZAHWPR4nodMeyzGLzTj/F5Y1brgeBheGiboPDu8wcVzinz87Z1mWZoSShxVuHoDCYo8c48U9g+HlLYUFAl8RnAVgRxxJYl/GNgbDMDz83xFznLliPfKtHj7VAKPLU7QJ7I956uVY479yFN1/f8eHzA/2qIE5st6DKMmPEsRV1c+rHki+TyenDn4ddtxQ1mrT+8UClxJPHQSQw5F+bFdgCMDwdDdmEn+8mxPM4AZZRFp2R1z5TUSOTSQAcOb9GNAUZuwHGhwnzP495XAH7U17F05WMd4/05ifToybcyWtEsmMnOahnhnmS5+UxjoMyjA9zzGFQN1rDADG/sU1sYDtD+3LG/BCneRCXVV6FeTXb5nf6SCOF1xHzu9q+9GLZM2/XhaMi0qJoFwHGa0cdcxSPXldAePavFJhgD/ujjnm9zNWsZ3cIomYRbcgcfNqBSk4VdgNMJkl7KINxactcC48xLioUES4pBLugCLIorXJcTYD3tSFz9Bd7gYMnsN2gQrAtQhwYIKgUOoz+TcXqkrgEaPT29475scT1ljDOT2lenoJTnh/jtAyTY4y/jJiDnzLwdFFBt+pBFaehPEY/46nondPYM6+0NEhCVMy4PCZpEYOqVmkF95EWY+aCNFTRiaV5CcgcbYTXeorQ6O3TNj40MhzsDkEUZUF1Coosi4Ioy+gvWYJCVF/ztmZOVbStDUzLNdEYMxBMj+ZtnYGuMjaqRPT2Jt4/vtV60wI/oqIOHNmNX+inX5onRfZiZ1zszWKeFN/HbLOevOQ4JoIQYnpNHUbfkdr3XKtHiM9v2jrcfopf2SzwG5jXba5jyAJBtOEiIP5NfYKpd4bR1j/8mwv3nVpjwE7Lluy3ioRVXB+5e3VjN8yxvRF611JDF+DjBE9PT/Dj+Wnybr/QiOOi9s7NwUDjPR9YzGtp0XWnlhKgXrPvUm/ABVh+xDZ4kwJxli/A4VvL3OmYP3+654K3UHDDHIlLEiXeCgs0e8fcGIjLGYhuj+RplnlrCWFwR711Qfp84MRf8yFyfZvPMO+kBWc+l3jZuGDEYG4YlrcXPcuihakNc+UsfGYR2l+zZtTyO2mZMgfqnYNhSYsZlkRydJvBXHJ9VxRFtx7vq3uRzis9vuUl3ofmTSteYA62ZZAdtyzoBhp+k8FcqVOsa8MoeA3zN2fMl5/B4T+zFTutbUH9RN4YnUPQJOpO72nBAGOh56vjSyyyLOeqjMzrMBZkTkW+ZQ6+cd19aUUbo6U1cZFdcOJ8myu0xRuR6fojx8F7cAaZSKY0v/IlmAQcMpCsZeaWSBPy65mACXPtlMYYhwIu5rEAzzOKCgw+2VEnNAhZ0kJ8j3ZFNKCIWnPLsgEWMSW911CQ5qUlZ7A7CtO2CDSvqR7/o5lRB9KiHXfgsKV5HFZhGYPnVpZhSIOg8vCUnCJWm7tta4NvO+6HwJ73sm0tztQZzgpz2vs3yQzEbfyWhvnhFMcYshSHeViWp+hYVhh2BX/meRgcixXmfU9ERb1RUrTnI+YLxmWdOUa71BO6GNFSR6m3bZ5lhZYlSZrs0N3U0gTEpSiiJCswlilYZ77SE1GrveBurDPHBIq641RqM6P0GlqPCaOiGRgW7TvD0OUrmA8sIZu5bQFzY3ErjMeGOYamUTMzZxWXTeO8VbRVVk/UizabuYnu/PLSqCTWy+gK3YNiv5eVu9bP58GPlZ5o2uamM0yuN5ylxRdkTruj5cn2lnndnbqe59wp0yDxZWj/nW0S2uZNVyQ1Coqt7aDTO5BzNnP0a5aXlTCuggbpGAbm83l0kxjzC6/H9d9P8x5X0wc1oEIDN4CtbqojDV1yYylzaxLteMa8/bT3z5+kT1xQn+dLbTUU+da9UL0fBza6KfFqKDoBbP+89XJxumWbiaLWnteeSz0EbYahZODlsphTE2QzlpSGIwvmaO6i3Ur47fniQp39jAMuRqXWYDTHHEGbl6TeMUcWA+Z9H/qsTleE/jW/TvTU19GPoFmzFobDG22wynzscdXtIU2XW5Zs2duHbvwNfksn24yZIowl55/RMKTlnmhoTVrm5DO3HT48tBNNg5ki1uwcDffkn9IQHnGXooE5t/qOaHBZM7I4Wydi4a9GuMGe+F1ByzOidQzBBbtB4PzcYMoF8OiYeBPDu287orM1i6F8TN9oZ0R1eRAtujwLbUsgsOSi7U4Mup1Sna1Qz7dY042s7GZkN2Q+zmGLdtP0qOEsdC8gyuLMv41OxOaL06A8xoT5oUqjNEBXNM8PO60Mcg1XLKIz5vZotdwQGastZC1OeR4MWyoQqW61EXMhPVVpWMUnGIzlaZDmpzQ5pv3aYsNcGa22CKwJdEu/YvMQ2/OdOxvjJuzz24Z+kpwxz+MYho15GKf5Mc7jIMxLGFDGZ8zHK1x3rMVzwWFGEc5D+dv7ZoEX+j/in+el2E5j2gfMtSDQkqDKg6QMMswyyvHleAymzCdUmSu5RL88NVb5h3zzvv3j/UP+/nb2NJU2FnTGttQJnK2eVtlUzqcruTZr9Rzsy8XiYn3/pprfXPK398/3s6yFbpTJsor1fQzMzY9u9XxkYFmCzpx6XQK6+/C/MKOqRhc0alzQE2lvKQlzYgbBvDPSKxRWaNXlUPSuZ3u8oPf/Spt6GiVyZ4JdXGRnX+R1rcLsg9Lt+7eXrROdRebQxZdldoQveIwPxtCFs9/854EL9/X4+zwais7QLVZmX+IvroHobDfI+Mj4UD+LQKNRf8sW5CyM6XoIK6IHA9Hlqmai/qi/vmxB7Iuyg5iwViIuleX1DJqMfjYGQgeAEZxjbiXpGIXG+txgRjXiZOhZC5rMVCJD38i8WCsZAMzg1tmIYhiMMqO4lSs60hkIjGU5hMWMVJ+P4sakOkaQCwYzbyDpK00O3h3DpTaQ4sz7yndmurG1RXckrPQMhKm+4JqfOUG0VBhssOJE2aXywWJ3DAq7ddSxa97DYYdbGis5VjwwdVaTGyupUIuJlPOaO/hcWlgL5AZb/zAbg9U0y/kUgrOSfUZeOJgWlpZBu+JZomS70OQLX0e3ixUqOhOGfREU5pyTorMzRCXG7KewltiKOU3Xaym7e4TbYs4xoMuyvB+K5a5sCWBw5nnMAZ4Yo2xMVGT6F44oskK2YGjEzibmTVGZ5caYQ7DWDNeaJNt7cWVfRuta6garUVeJ00RK5hX6amwxdCZXUVcYE07Wqv5gsh87ztzAvazYFLB9rrAw1vJm48r6cwT1XIt5JtNdZ84Bsn75lufLSz8CZhy/nBVmMopruyxAZ3fm0hnkzb+48GifFcY2h3e1zVsP1sYFpLXtdrG28fM1fn7mTQz6MNojzTb1VeK0n+EQUIkjUVSAfsMZSsynd7xTPtowYkDA3MRVyaM7z6wTp0q6HuwKQ4RBKv9H/oiBdls5nL7DZ7c+NIfekzOb3+LaMg1XkDpFfR5skrZ6D3QbIsOxUDU5vE+6wxKnHUarzxFJr+DmD81GYT3zKKqjeJrX+p3RXoTIHOdzccsODuk1L9jfBIPpeHJdDIzmMK0h80NeVkVUFFmUZ1GEG45VSV5EmOhRtNyj53oDA0niOZcBhnAXJIGgk8CzG4pgO7juaQ2Yp6e4qsogzuMkzvIkRgRxmYRlPGhzm+4HxHOUBa7yXxIcj9rMdaMC+FGgZAPmeZCdKkwgy455msZHTPQI8/JYhD3zeiMjnqltDI+7LCXe4d70FQ1bz1xL4jLKoyxOkqIqsyqvgjwvkrjIo6rThGfFNHEPw/UBFt329sK9NkChv3PmuxiW0Guo9ucB9xj78wAvAPyr/qcdBtLCC+dsIzkOOj6Hq9DhbLPNVavIBXO/7midw3Iv2Ff5Eub1xnQ8IFeeWYAbG3Jv5n1/WKfc4PCwlKUxJXBJ241ALvjmE9+2coB3Xzmb/HrizdPipf7zAx9+chKnG8ZfnbRqyjR2lAvvp4lBC+AVFQxbfUG2LVK/4eEbyyAv2oobgbu/7x9f/bQsWu0L85tNF7f5f90T1uhG/4z1Nk4oeCTJ9qepMGDo8jZb9OOJLbc6IWcO9NScbXInLf81N82nO/xvs+FgPZOx32908BYbgrO/aCSxCixP3uo0FQZslBTxJcdBnIHaV/+mh3zhVACVy437j/q0qaW80G2qUOlZQptXgUYWnuTNzvrBI0/EG50QQ7civ9HBUAI9LetmZwkZDvpvsrr5EY6CgoKyd2/YVys6ngTpbnzinCXh2U3ybQ+GxEO+cHC4SeBFDUvHEzdACm/dXxiOiBIpbnT8pKViYbL4Kk4dijvKu/fiVjIUjx6a677akbkWPbFVln3nBWfFCpbj4emh8paitw7L9OvWUs2ryAuWqdZP7kV3fxVs0/8u0+ORLz9zFg9jxrOJZTzV/SbsVkCPnUW7AA988Ux2Wx8NJwVb0d3mVOXXOWR2HgbpTrLe46Hg01QQwda76UnBwFxbrzvJ2rux/7YKEFi/ZoNHnnvN8eE0R9GgXYwsNYeHe3j4OeZcy6Kvmr+uuXsINnG8PSW1py9ukzvvuXQrBxcPbN/TA9vpue2ec1maz21h2IqDgtCIQguRgv6GJ7rj4ejKTMrIL4dgKSg6ojhmTl9dEBDlte3fpaBJXLgmIcFTwJ0cQPB/w3ZmArxXEJFfMbv3coDZfKVdBLeHQW7U5v8HiQVC1DT/D/wAAAAASUVORK5CYII=;" vertex="1" parent="1">
          <mxGeometry x="-420" y="40" width="344.14" height="346" as="geometry" />
        </mxCell>
        <mxCell id="v0XENPAWPi0MFYCise0P-7" value="" style="group;labelBackgroundColor=none;" vertex="1" connectable="0" parent="1">
          <mxGeometry x="380" y="242" width="139" height="108" as="geometry" />
        </mxCell>
        <mxCell id="v0XENPAWPi0MFYCise0P-3" value="" style="shape=cylinder;whiteSpace=wrap;html=1;boundedLbl=1;backgroundOutline=1;shadow=1;labelBackgroundColor=none;" vertex="1" parent="v0XENPAWPi0MFYCise0P-7">
          <mxGeometry y="48" width="60" height="20" as="geometry" />
        </mxCell>
        <mxCell id="v0XENPAWPi0MFYCise0P-4" value="" style="shape=cylinder;whiteSpace=wrap;html=1;boundedLbl=1;backgroundOutline=1;shadow=1;labelBackgroundColor=none;" vertex="1" parent="v0XENPAWPi0MFYCise0P-7">
          <mxGeometry y="32" width="60" height="20" as="geometry" />
        </mxCell>
        <mxCell id="v0XENPAWPi0MFYCise0P-5" value="" style="shape=cylinder;whiteSpace=wrap;html=1;boundedLbl=1;backgroundOutline=1;shadow=1;labelBackgroundColor=none;" vertex="1" parent="v0XENPAWPi0MFYCise0P-7">
          <mxGeometry y="16" width="60" height="20" as="geometry" />
        </mxCell>
        <mxCell id="v0XENPAWPi0MFYCise0P-6" value="" style="shape=cylinder;whiteSpace=wrap;html=1;boundedLbl=1;backgroundOutline=1;shadow=1;labelBackgroundColor=none;" vertex="1" parent="v0XENPAWPi0MFYCise0P-7">
          <mxGeometry width="60" height="20" as="geometry" />
        </mxCell>
        <mxCell id="v0XENPAWPi0MFYCise0P-14" value="&lt;font style=&quot;font-size: 14px;&quot;&gt;&lt;b&gt;CompreensÃ£o dos Dados&lt;/b&gt;&lt;/font&gt;" style="html=1;dashed=0;rounded=1;absoluteArcSize=1;arcSize=20;verticalAlign=middle;align=center;whiteSpace=wrap;shadow=1;labelBackgroundColor=none;" vertex="1" parent="1">
          <mxGeometry x="440" y="96" width="210" height="60" as="geometry" />
        </mxCell>
        <mxCell id="v0XENPAWPi0MFYCise0P-15" value="" style="group;resizeWidth=0;resizeHeight=0;html=1;labelBackgroundColor=none;" vertex="1" parent="v0XENPAWPi0MFYCise0P-14">
          <mxGeometry width="80" height="20" relative="1" as="geometry">
            <mxPoint x="30" y="-10" as="offset" />
          </mxGeometry>
        </mxCell>
        <mxCell id="v0XENPAWPi0MFYCise0P-16" value="" style="resizeWidth=0;resizeHeight=0;points=[[0,0],[0.5,0],[1,0]];html=1;whiteSpace=wrap;labelBackgroundColor=none;" vertex="1" parent="v0XENPAWPi0MFYCise0P-15">
          <mxGeometry width="20" height="20" relative="1" as="geometry">
            <mxPoint as="offset" />
          </mxGeometry>
        </mxCell>
        <mxCell id="v0XENPAWPi0MFYCise0P-17" value="" style="resizeWidth=0;resizeHeight=0;points=[[0,0],[0.5,0],[1,0]];html=1;whiteSpace=wrap;labelBackgroundColor=none;" vertex="1" parent="v0XENPAWPi0MFYCise0P-15">
          <mxGeometry width="20" height="20" relative="1" as="geometry">
            <mxPoint x="20" as="offset" />
          </mxGeometry>
        </mxCell>
        <mxCell id="v0XENPAWPi0MFYCise0P-18" value="" style="resizeWidth=0;resizeHeight=0;points=[[0,0],[0.5,0],[1,0]];html=1;whiteSpace=wrap;labelBackgroundColor=none;" vertex="1" parent="v0XENPAWPi0MFYCise0P-15">
          <mxGeometry width="20" height="20" relative="1" as="geometry">
            <mxPoint x="40" as="offset" />
          </mxGeometry>
        </mxCell>
        <mxCell id="v0XENPAWPi0MFYCise0P-19" value="" style="resizeWidth=0;resizeHeight=0;points=[[0,0],[0.5,0],[1,0]];html=1;whiteSpace=wrap;labelBackgroundColor=none;" vertex="1" parent="v0XENPAWPi0MFYCise0P-15">
          <mxGeometry width="20" height="20" relative="1" as="geometry">
            <mxPoint x="60" as="offset" />
          </mxGeometry>
        </mxCell>
        <mxCell id="v0XENPAWPi0MFYCise0P-20" value="" style="group;resizeWidth=0;resizeHeight=0;html=1;labelBackgroundColor=none;" vertex="1" parent="v0XENPAWPi0MFYCise0P-14">
          <mxGeometry y="1" width="80" height="20" relative="1" as="geometry">
            <mxPoint x="30" y="-10" as="offset" />
          </mxGeometry>
        </mxCell>
        <mxCell id="v0XENPAWPi0MFYCise0P-21" value="" style="resizeWidth=0;resizeHeight=0;points=[[0,1],[0.5,1],[1,1]];html=1;whiteSpace=wrap;labelBackgroundColor=none;" vertex="1" parent="v0XENPAWPi0MFYCise0P-20">
          <mxGeometry width="20" height="20" relative="1" as="geometry">
            <mxPoint as="offset" />
          </mxGeometry>
        </mxCell>
        <mxCell id="v0XENPAWPi0MFYCise0P-22" value="" style="resizeWidth=0;resizeHeight=0;points=[[0,1],[0.5,1],[1,1]];html=1;whiteSpace=wrap;labelBackgroundColor=none;" vertex="1" parent="v0XENPAWPi0MFYCise0P-20">
          <mxGeometry width="20" height="20" relative="1" as="geometry">
            <mxPoint x="20" as="offset" />
          </mxGeometry>
        </mxCell>
        <mxCell id="v0XENPAWPi0MFYCise0P-23" value="" style="resizeWidth=0;resizeHeight=0;points=[[0,1],[0.5,1],[1,1]];html=1;whiteSpace=wrap;labelBackgroundColor=none;" vertex="1" parent="v0XENPAWPi0MFYCise0P-20">
          <mxGeometry width="20" height="20" relative="1" as="geometry">
            <mxPoint x="40" as="offset" />
          </mxGeometry>
        </mxCell>
        <mxCell id="v0XENPAWPi0MFYCise0P-24" value="" style="resizeWidth=0;resizeHeight=0;points=[[0,1],[0.5,1],[1,1]];html=1;whiteSpace=wrap;labelBackgroundColor=none;" vertex="1" parent="v0XENPAWPi0MFYCise0P-20">
          <mxGeometry width="20" height="20" relative="1" as="geometry">
            <mxPoint x="60" as="offset" />
          </mxGeometry>
        </mxCell>
        <mxCell id="v0XENPAWPi0MFYCise0P-100" value="" style="html=1;verticalAlign=bottom;endArrow=block;curved=0;rounded=0;entryX=0.987;entryY=0.388;entryDx=0;entryDy=0;entryPerimeter=0;exitX=0.99;exitY=0.401;exitDx=0;exitDy=0;exitPerimeter=0;strokeWidth=6;labelBackgroundColor=none;fontColor=default;" edge="1" parent="1" source="v0XENPAWPi0MFYCise0P-9" target="v0XENPAWPi0MFYCise0P-9">
          <mxGeometry width="80" relative="1" as="geometry">
            <mxPoint x="700" y="420" as="sourcePoint" />
            <mxPoint x="780" y="420" as="targetPoint" />
          </mxGeometry>
        </mxCell>
        <mxCell id="v0XENPAWPi0MFYCise0P-103" value="" style="html=1;verticalAlign=bottom;endArrow=block;curved=0;rounded=0;entryX=0.106;entryY=0.192;entryDx=0;entryDy=0;entryPerimeter=0;strokeWidth=6;labelBackgroundColor=none;fontColor=default;exitX=0.119;exitY=0.175;exitDx=0;exitDy=0;exitPerimeter=0;" edge="1" parent="1" source="v0XENPAWPi0MFYCise0P-9" target="v0XENPAWPi0MFYCise0P-9">
          <mxGeometry width="80" relative="1" as="geometry">
            <mxPoint x="168" y="84" as="sourcePoint" />
            <mxPoint x="168" y="72" as="targetPoint" />
          </mxGeometry>
        </mxCell>
        <mxCell id="v0XENPAWPi0MFYCise0P-104" value="" style="edgeLabel;html=1;align=center;verticalAlign=middle;resizable=0;points=[];strokeColor=#BAC8D3;fontColor=#EEEEEE;fillColor=#09555B;" vertex="1" connectable="0" parent="v0XENPAWPi0MFYCise0P-103">
          <mxGeometry x="-1" y="9" relative="1" as="geometry">
            <mxPoint x="6" y="7" as="offset" />
          </mxGeometry>
        </mxCell>
        <mxCell id="v0XENPAWPi0MFYCise0P-107" value="&lt;font style=&quot;font-size: 14px;&quot;&gt;&lt;b&gt;CompreensÃ£o dos Dados&lt;/b&gt;&lt;/font&gt;" style="html=1;dashed=0;rounded=1;absoluteArcSize=1;arcSize=20;verticalAlign=middle;align=center;whiteSpace=wrap;shadow=1;labelBackgroundColor=none;" vertex="1" parent="1">
          <mxGeometry x="492" y="228" width="210" height="60" as="geometry" />
        </mxCell>
        <mxCell id="v0XENPAWPi0MFYCise0P-108" value="" style="group;resizeWidth=0;resizeHeight=0;html=1;labelBackgroundColor=none;" vertex="1" parent="v0XENPAWPi0MFYCise0P-107">
          <mxGeometry width="80" height="20" relative="1" as="geometry">
            <mxPoint x="30" y="-10" as="offset" />
          </mxGeometry>
        </mxCell>
        <mxCell id="v0XENPAWPi0MFYCise0P-109" value="" style="resizeWidth=0;resizeHeight=0;points=[[0,0],[0.5,0],[1,0]];html=1;whiteSpace=wrap;labelBackgroundColor=none;" vertex="1" parent="v0XENPAWPi0MFYCise0P-108">
          <mxGeometry width="20" height="20" relative="1" as="geometry">
            <mxPoint as="offset" />
          </mxGeometry>
        </mxCell>
        <mxCell id="v0XENPAWPi0MFYCise0P-110" value="" style="resizeWidth=0;resizeHeight=0;points=[[0,0],[0.5,0],[1,0]];html=1;whiteSpace=wrap;labelBackgroundColor=none;" vertex="1" parent="v0XENPAWPi0MFYCise0P-108">
          <mxGeometry width="20" height="20" relative="1" as="geometry">
            <mxPoint x="20" as="offset" />
          </mxGeometry>
        </mxCell>
        <mxCell id="v0XENPAWPi0MFYCise0P-111" value="" style="resizeWidth=0;resizeHeight=0;points=[[0,0],[0.5,0],[1,0]];html=1;whiteSpace=wrap;labelBackgroundColor=none;" vertex="1" parent="v0XENPAWPi0MFYCise0P-108">
          <mxGeometry width="20" height="20" relative="1" as="geometry">
            <mxPoint x="40" as="offset" />
          </mxGeometry>
        </mxCell>
        <mxCell id="v0XENPAWPi0MFYCise0P-112" value="" style="resizeWidth=0;resizeHeight=0;points=[[0,0],[0.5,0],[1,0]];html=1;whiteSpace=wrap;labelBackgroundColor=none;" vertex="1" parent="v0XENPAWPi0MFYCise0P-108">
          <mxGeometry width="20" height="20" relative="1" as="geometry">
            <mxPoint x="60" as="offset" />
          </mxGeometry>
        </mxCell>
        <mxCell id="v0XENPAWPi0MFYCise0P-113" value="" style="group;resizeWidth=0;resizeHeight=0;html=1;labelBackgroundColor=none;" vertex="1" parent="v0XENPAWPi0MFYCise0P-107">
          <mxGeometry y="1" width="80" height="20" relative="1" as="geometry">
            <mxPoint x="30" y="-10" as="offset" />
          </mxGeometry>
        </mxCell>
        <mxCell id="v0XENPAWPi0MFYCise0P-114" value="" style="resizeWidth=0;resizeHeight=0;points=[[0,1],[0.5,1],[1,1]];html=1;whiteSpace=wrap;labelBackgroundColor=none;" vertex="1" parent="v0XENPAWPi0MFYCise0P-113">
          <mxGeometry width="20" height="20" relative="1" as="geometry">
            <mxPoint as="offset" />
          </mxGeometry>
        </mxCell>
        <mxCell id="v0XENPAWPi0MFYCise0P-115" value="" style="resizeWidth=0;resizeHeight=0;points=[[0,1],[0.5,1],[1,1]];html=1;whiteSpace=wrap;labelBackgroundColor=none;" vertex="1" parent="v0XENPAWPi0MFYCise0P-113">
          <mxGeometry width="20" height="20" relative="1" as="geometry">
            <mxPoint x="20" as="offset" />
          </mxGeometry>
        </mxCell>
        <mxCell id="v0XENPAWPi0MFYCise0P-116" value="" style="resizeWidth=0;resizeHeight=0;points=[[0,1],[0.5,1],[1,1]];html=1;whiteSpace=wrap;labelBackgroundColor=none;" vertex="1" parent="v0XENPAWPi0MFYCise0P-113">
          <mxGeometry width="20" height="20" relative="1" as="geometry">
            <mxPoint x="40" as="offset" />
          </mxGeometry>
        </mxCell>
        <mxCell id="v0XENPAWPi0MFYCise0P-117" value="" style="resizeWidth=0;resizeHeight=0;points=[[0,1],[0.5,1],[1,1]];html=1;whiteSpace=wrap;labelBackgroundColor=none;" vertex="1" parent="v0XENPAWPi0MFYCise0P-113">
          <mxGeometry width="20" height="20" relative="1" as="geometry">
            <mxPoint x="60" as="offset" />
          </mxGeometry>
        </mxCell>
        <mxCell id="v0XENPAWPi0MFYCise0P-118" value="&lt;font style=&quot;font-size: 14px;&quot;&gt;&lt;b&gt;CompreensÃ£o dos Dados&lt;/b&gt;&lt;/font&gt;" style="html=1;dashed=0;rounded=1;absoluteArcSize=1;arcSize=20;verticalAlign=middle;align=center;whiteSpace=wrap;shadow=1;labelBackgroundColor=none;" vertex="1" parent="1">
          <mxGeometry x="180" y="96" width="210" height="60" as="geometry" />
        </mxCell>
        <mxCell id="v0XENPAWPi0MFYCise0P-119" value="" style="group;resizeWidth=0;resizeHeight=0;html=1;labelBackgroundColor=none;" vertex="1" parent="v0XENPAWPi0MFYCise0P-118">
          <mxGeometry width="80" height="20" relative="1" as="geometry">
            <mxPoint x="30" y="-10" as="offset" />
          </mxGeometry>
        </mxCell>
        <mxCell id="v0XENPAWPi0MFYCise0P-120" value="" style="resizeWidth=0;resizeHeight=0;points=[[0,0],[0.5,0],[1,0]];html=1;whiteSpace=wrap;labelBackgroundColor=none;" vertex="1" parent="v0XENPAWPi0MFYCise0P-119">
          <mxGeometry width="20" height="20" relative="1" as="geometry">
            <mxPoint as="offset" />
          </mxGeometry>
        </mxCell>
        <mxCell id="v0XENPAWPi0MFYCise0P-121" value="" style="resizeWidth=0;resizeHeight=0;points=[[0,0],[0.5,0],[1,0]];html=1;whiteSpace=wrap;labelBackgroundColor=none;" vertex="1" parent="v0XENPAWPi0MFYCise0P-119">
          <mxGeometry width="20" height="20" relative="1" as="geometry">
            <mxPoint x="20" as="offset" />
          </mxGeometry>
        </mxCell>
        <mxCell id="v0XENPAWPi0MFYCise0P-122" value="" style="resizeWidth=0;resizeHeight=0;points=[[0,0],[0.5,0],[1,0]];html=1;whiteSpace=wrap;labelBackgroundColor=none;" vertex="1" parent="v0XENPAWPi0MFYCise0P-119">
          <mxGeometry width="20" height="20" relative="1" as="geometry">
            <mxPoint x="40" as="offset" />
          </mxGeometry>
        </mxCell>
        <mxCell id="v0XENPAWPi0MFYCise0P-123" value="" style="resizeWidth=0;resizeHeight=0;points=[[0,0],[0.5,0],[1,0]];html=1;whiteSpace=wrap;labelBackgroundColor=none;" vertex="1" parent="v0XENPAWPi0MFYCise0P-119">
          <mxGeometry width="20" height="20" relative="1" as="geometry">
            <mxPoint x="60" as="offset" />
          </mxGeometry>
        </mxCell>
        <mxCell id="v0XENPAWPi0MFYCise0P-124" value="" style="group;resizeWidth=0;resizeHeight=0;html=1;labelBackgroundColor=none;" vertex="1" parent="v0XENPAWPi0MFYCise0P-118">
          <mxGeometry y="1" width="80" height="20" relative="1" as="geometry">
            <mxPoint x="30" y="-10" as="offset" />
          </mxGeometry>
        </mxCell>
        <mxCell id="v0XENPAWPi0MFYCise0P-125" value="" style="resizeWidth=0;resizeHeight=0;points=[[0,1],[0.5,1],[1,1]];html=1;whiteSpace=wrap;labelBackgroundColor=none;" vertex="1" parent="v0XENPAWPi0MFYCise0P-124">
          <mxGeometry width="20" height="20" relative="1" as="geometry">
            <mxPoint as="offset" />
          </mxGeometry>
        </mxCell>
        <mxCell id="v0XENPAWPi0MFYCise0P-126" value="" style="resizeWidth=0;resizeHeight=0;points=[[0,1],[0.5,1],[1,1]];html=1;whiteSpace=wrap;labelBackgroundColor=none;" vertex="1" parent="v0XENPAWPi0MFYCise0P-124">
          <mxGeometry width="20" height="20" relative="1" as="geometry">
            <mxPoint x="20" as="offset" />
          </mxGeometry>
        </mxCell>
        <mxCell id="v0XENPAWPi0MFYCise0P-127" value="" style="resizeWidth=0;resizeHeight=0;points=[[0,1],[0.5,1],[1,1]];html=1;whiteSpace=wrap;labelBackgroundColor=none;" vertex="1" parent="v0XENPAWPi0MFYCise0P-124">
          <mxGeometry width="20" height="20" relative="1" as="geometry">
            <mxPoint x="40" as="offset" />
          </mxGeometry>
        </mxCell>
        <mxCell id="v0XENPAWPi0MFYCise0P-128" value="" style="resizeWidth=0;resizeHeight=0;points=[[0,1],[0.5,1],[1,1]];html=1;whiteSpace=wrap;labelBackgroundColor=none;" vertex="1" parent="v0XENPAWPi0MFYCise0P-124">
          <mxGeometry width="20" height="20" relative="1" as="geometry">
            <mxPoint x="60" as="offset" />
          </mxGeometry>
        </mxCell>
        <mxCell id="v0XENPAWPi0MFYCise0P-140" value="&lt;font style=&quot;font-size: 14px;&quot;&gt;&lt;b&gt;CompreensÃ£o dos Dados&lt;/b&gt;&lt;/font&gt;" style="html=1;dashed=0;rounded=1;absoluteArcSize=1;arcSize=20;verticalAlign=middle;align=center;whiteSpace=wrap;shadow=1;labelBackgroundColor=none;" vertex="1" parent="1">
          <mxGeometry x="309" y="480" width="210" height="60" as="geometry" />
        </mxCell>
        <mxCell id="v0XENPAWPi0MFYCise0P-141" value="" style="group;resizeWidth=0;resizeHeight=0;html=1;labelBackgroundColor=none;" vertex="1" parent="v0XENPAWPi0MFYCise0P-140">
          <mxGeometry width="80" height="20" relative="1" as="geometry">
            <mxPoint x="30" y="-10" as="offset" />
          </mxGeometry>
        </mxCell>
        <mxCell id="v0XENPAWPi0MFYCise0P-142" value="" style="resizeWidth=0;resizeHeight=0;points=[[0,0],[0.5,0],[1,0]];html=1;whiteSpace=wrap;labelBackgroundColor=none;" vertex="1" parent="v0XENPAWPi0MFYCise0P-141">
          <mxGeometry width="20" height="20" relative="1" as="geometry">
            <mxPoint as="offset" />
          </mxGeometry>
        </mxCell>
        <mxCell id="v0XENPAWPi0MFYCise0P-143" value="" style="resizeWidth=0;resizeHeight=0;points=[[0,0],[0.5,0],[1,0]];html=1;whiteSpace=wrap;labelBackgroundColor=none;" vertex="1" parent="v0XENPAWPi0MFYCise0P-141">
          <mxGeometry width="20" height="20" relative="1" as="geometry">
            <mxPoint x="20" as="offset" />
          </mxGeometry>
        </mxCell>
        <mxCell id="v0XENPAWPi0MFYCise0P-144" value="" style="resizeWidth=0;resizeHeight=0;points=[[0,0],[0.5,0],[1,0]];html=1;whiteSpace=wrap;labelBackgroundColor=none;" vertex="1" parent="v0XENPAWPi0MFYCise0P-141">
          <mxGeometry width="20" height="20" relative="1" as="geometry">
            <mxPoint x="40" as="offset" />
          </mxGeometry>
        </mxCell>
        <mxCell id="v0XENPAWPi0MFYCise0P-145" value="" style="resizeWidth=0;resizeHeight=0;points=[[0,0],[0.5,0],[1,0]];html=1;whiteSpace=wrap;labelBackgroundColor=none;" vertex="1" parent="v0XENPAWPi0MFYCise0P-141">
          <mxGeometry width="20" height="20" relative="1" as="geometry">
            <mxPoint x="60" as="offset" />
          </mxGeometry>
        </mxCell>
        <mxCell id="v0XENPAWPi0MFYCise0P-146" value="" style="group;resizeWidth=0;resizeHeight=0;html=1;labelBackgroundColor=none;" vertex="1" parent="v0XENPAWPi0MFYCise0P-140">
          <mxGeometry y="1" width="80" height="20" relative="1" as="geometry">
            <mxPoint x="30" y="-10" as="offset" />
          </mxGeometry>
        </mxCell>
        <mxCell id="v0XENPAWPi0MFYCise0P-147" value="" style="resizeWidth=0;resizeHeight=0;points=[[0,1],[0.5,1],[1,1]];html=1;whiteSpace=wrap;labelBackgroundColor=none;" vertex="1" parent="v0XENPAWPi0MFYCise0P-146">
          <mxGeometry width="20" height="20" relative="1" as="geometry">
            <mxPoint as="offset" />
          </mxGeometry>
        </mxCell>
        <mxCell id="v0XENPAWPi0MFYCise0P-148" value="" style="resizeWidth=0;resizeHeight=0;points=[[0,1],[0.5,1],[1,1]];html=1;whiteSpace=wrap;labelBackgroundColor=none;" vertex="1" parent="v0XENPAWPi0MFYCise0P-146">
          <mxGeometry width="20" height="20" relative="1" as="geometry">
            <mxPoint x="20" as="offset" />
          </mxGeometry>
        </mxCell>
        <mxCell id="v0XENPAWPi0MFYCise0P-149" value="" style="resizeWidth=0;resizeHeight=0;points=[[0,1],[0.5,1],[1,1]];html=1;whiteSpace=wrap;labelBackgroundColor=none;" vertex="1" parent="v0XENPAWPi0MFYCise0P-146">
          <mxGeometry width="20" height="20" relative="1" as="geometry">
            <mxPoint x="40" as="offset" />
          </mxGeometry>
        </mxCell>
        <mxCell id="v0XENPAWPi0MFYCise0P-150" value="" style="resizeWidth=0;resizeHeight=0;points=[[0,1],[0.5,1],[1,1]];html=1;whiteSpace=wrap;labelBackgroundColor=none;" vertex="1" parent="v0XENPAWPi0MFYCise0P-146">
          <mxGeometry width="20" height="20" relative="1" as="geometry">
            <mxPoint x="60" as="offset" />
          </mxGeometry>
        </mxCell>
        <mxCell id="v0XENPAWPi0MFYCise0P-151" value="&lt;font style=&quot;font-size: 14px;&quot;&gt;&lt;b&gt;CompreensÃ£o dos Dados&lt;/b&gt;&lt;/font&gt;" style="html=1;dashed=0;rounded=1;absoluteArcSize=1;arcSize=20;verticalAlign=middle;align=center;whiteSpace=wrap;shadow=1;labelBackgroundColor=none;" vertex="1" parent="1">
          <mxGeometry x="120" y="242" width="210" height="60" as="geometry" />
        </mxCell>
        <mxCell id="v0XENPAWPi0MFYCise0P-152" value="" style="group;resizeWidth=0;resizeHeight=0;html=1;labelBackgroundColor=none;" vertex="1" parent="v0XENPAWPi0MFYCise0P-151">
          <mxGeometry width="80" height="20" relative="1" as="geometry">
            <mxPoint x="30" y="-10" as="offset" />
          </mxGeometry>
        </mxCell>
        <mxCell id="v0XENPAWPi0MFYCise0P-153" value="" style="resizeWidth=0;resizeHeight=0;points=[[0,0],[0.5,0],[1,0]];html=1;whiteSpace=wrap;labelBackgroundColor=none;" vertex="1" parent="v0XENPAWPi0MFYCise0P-152">
          <mxGeometry width="20" height="20" relative="1" as="geometry">
            <mxPoint as="offset" />
          </mxGeometry>
        </mxCell>
        <mxCell id="v0XENPAWPi0MFYCise0P-154" value="" style="resizeWidth=0;resizeHeight=0;points=[[0,0],[0.5,0],[1,0]];html=1;whiteSpace=wrap;labelBackgroundColor=none;" vertex="1" parent="v0XENPAWPi0MFYCise0P-152">
          <mxGeometry width="20" height="20" relative="1" as="geometry">
            <mxPoint x="20" as="offset" />
          </mxGeometry>
        </mxCell>
        <mxCell id="v0XENPAWPi0MFYCise0P-155" value="" style="resizeWidth=0;resizeHeight=0;points=[[0,0],[0.5,0],[1,0]];html=1;whiteSpace=wrap;labelBackgroundColor=none;" vertex="1" parent="v0XENPAWPi0MFYCise0P-152">
          <mxGeometry width="20" height="20" relative="1" as="geometry">
            <mxPoint x="40" as="offset" />
          </mxGeometry>
        </mxCell>
        <mxCell id="v0XENPAWPi0MFYCise0P-156" value="" style="resizeWidth=0;resizeHeight=0;points=[[0,0],[0.5,0],[1,0]];html=1;whiteSpace=wrap;labelBackgroundColor=none;" vertex="1" parent="v0XENPAWPi0MFYCise0P-152">
          <mxGeometry width="20" height="20" relative="1" as="geometry">
            <mxPoint x="60" as="offset" />
          </mxGeometry>
        </mxCell>
        <mxCell id="v0XENPAWPi0MFYCise0P-157" value="" style="group;resizeWidth=0;resizeHeight=0;html=1;labelBackgroundColor=none;" vertex="1" parent="v0XENPAWPi0MFYCise0P-151">
          <mxGeometry y="1" width="80" height="20" relative="1" as="geometry">
            <mxPoint x="30" y="-10" as="offset" />
          </mxGeometry>
        </mxCell>
        <mxCell id="v0XENPAWPi0MFYCise0P-158" value="" style="resizeWidth=0;resizeHeight=0;points=[[0,1],[0.5,1],[1,1]];html=1;whiteSpace=wrap;labelBackgroundColor=none;" vertex="1" parent="v0XENPAWPi0MFYCise0P-157">
          <mxGeometry width="20" height="20" relative="1" as="geometry">
            <mxPoint as="offset" />
          </mxGeometry>
        </mxCell>
        <mxCell id="v0XENPAWPi0MFYCise0P-159" value="" style="resizeWidth=0;resizeHeight=0;points=[[0,1],[0.5,1],[1,1]];html=1;whiteSpace=wrap;labelBackgroundColor=none;" vertex="1" parent="v0XENPAWPi0MFYCise0P-157">
          <mxGeometry width="20" height="20" relative="1" as="geometry">
            <mxPoint x="20" as="offset" />
          </mxGeometry>
        </mxCell>
        <mxCell id="v0XENPAWPi0MFYCise0P-160" value="" style="resizeWidth=0;resizeHeight=0;points=[[0,1],[0.5,1],[1,1]];html=1;whiteSpace=wrap;labelBackgroundColor=none;" vertex="1" parent="v0XENPAWPi0MFYCise0P-157">
          <mxGeometry width="20" height="20" relative="1" as="geometry">
            <mxPoint x="40" as="offset" />
          </mxGeometry>
        </mxCell>
        <mxCell id="v0XENPAWPi0MFYCise0P-161" value="" style="resizeWidth=0;resizeHeight=0;points=[[0,1],[0.5,1],[1,1]];html=1;whiteSpace=wrap;labelBackgroundColor=none;" vertex="1" parent="v0XENPAWPi0MFYCise0P-157">
          <mxGeometry width="20" height="20" relative="1" as="geometry">
            <mxPoint x="60" as="offset" />
          </mxGeometry>
        </mxCell>
        <mxCell id="v0XENPAWPi0MFYCise0P-162" value="&lt;font style=&quot;font-size: 14px;&quot;&gt;&lt;b&gt;CompreensÃ£o dos Dados&lt;/b&gt;&lt;/font&gt;" style="html=1;dashed=0;rounded=1;absoluteArcSize=1;arcSize=20;verticalAlign=middle;align=center;whiteSpace=wrap;shadow=1;labelBackgroundColor=none;" vertex="1" parent="1">
          <mxGeometry x="492" y="350" width="210" height="60" as="geometry" />
        </mxCell>
        <mxCell id="v0XENPAWPi0MFYCise0P-163" value="" style="group;resizeWidth=0;resizeHeight=0;html=1;labelBackgroundColor=none;" vertex="1" parent="v0XENPAWPi0MFYCise0P-162">
          <mxGeometry width="80" height="20" relative="1" as="geometry">
            <mxPoint x="30" y="-10" as="offset" />
          </mxGeometry>
        </mxCell>
        <mxCell id="v0XENPAWPi0MFYCise0P-164" value="" style="resizeWidth=0;resizeHeight=0;points=[[0,0],[0.5,0],[1,0]];html=1;whiteSpace=wrap;labelBackgroundColor=none;" vertex="1" parent="v0XENPAWPi0MFYCise0P-163">
          <mxGeometry width="20" height="20" relative="1" as="geometry">
            <mxPoint as="offset" />
          </mxGeometry>
        </mxCell>
        <mxCell id="v0XENPAWPi0MFYCise0P-165" value="" style="resizeWidth=0;resizeHeight=0;points=[[0,0],[0.5,0],[1,0]];html=1;whiteSpace=wrap;labelBackgroundColor=none;" vertex="1" parent="v0XENPAWPi0MFYCise0P-163">
          <mxGeometry width="20" height="20" relative="1" as="geometry">
            <mxPoint x="20" as="offset" />
          </mxGeometry>
        </mxCell>
        <mxCell id="v0XENPAWPi0MFYCise0P-166" value="" style="resizeWidth=0;resizeHeight=0;points=[[0,0],[0.5,0],[1,0]];html=1;whiteSpace=wrap;labelBackgroundColor=none;" vertex="1" parent="v0XENPAWPi0MFYCise0P-163">
          <mxGeometry width="20" height="20" relative="1" as="geometry">
            <mxPoint x="40" as="offset" />
          </mxGeometry>
        </mxCell>
        <mxCell id="v0XENPAWPi0MFYCise0P-167" value="" style="resizeWidth=0;resizeHeight=0;points=[[0,0],[0.5,0],[1,0]];html=1;whiteSpace=wrap;labelBackgroundColor=none;" vertex="1" parent="v0XENPAWPi0MFYCise0P-163">
          <mxGeometry width="20" height="20" relative="1" as="geometry">
            <mxPoint x="60" as="offset" />
          </mxGeometry>
        </mxCell>
        <mxCell id="v0XENPAWPi0MFYCise0P-168" value="" style="group;resizeWidth=0;resizeHeight=0;html=1;labelBackgroundColor=none;" vertex="1" parent="v0XENPAWPi0MFYCise0P-162">
          <mxGeometry y="1" width="80" height="20" relative="1" as="geometry">
            <mxPoint x="30" y="-10" as="offset" />
          </mxGeometry>
        </mxCell>
        <mxCell id="v0XENPAWPi0MFYCise0P-169" value="" style="resizeWidth=0;resizeHeight=0;points=[[0,1],[0.5,1],[1,1]];html=1;whiteSpace=wrap;labelBackgroundColor=none;" vertex="1" parent="v0XENPAWPi0MFYCise0P-168">
          <mxGeometry width="20" height="20" relative="1" as="geometry">
            <mxPoint as="offset" />
          </mxGeometry>
        </mxCell>
        <mxCell id="v0XENPAWPi0MFYCise0P-170" value="" style="resizeWidth=0;resizeHeight=0;points=[[0,1],[0.5,1],[1,1]];html=1;whiteSpace=wrap;labelBackgroundColor=none;" vertex="1" parent="v0XENPAWPi0MFYCise0P-168">
          <mxGeometry width="20" height="20" relative="1" as="geometry">
            <mxPoint x="20" as="offset" />
          </mxGeometry>
        </mxCell>
        <mxCell id="v0XENPAWPi0MFYCise0P-171" value="" style="resizeWidth=0;resizeHeight=0;points=[[0,1],[0.5,1],[1,1]];html=1;whiteSpace=wrap;labelBackgroundColor=none;" vertex="1" parent="v0XENPAWPi0MFYCise0P-168">
          <mxGeometry width="20" height="20" relative="1" as="geometry">
            <mxPoint x="40" as="offset" />
          </mxGeometry>
        </mxCell>
        <mxCell id="v0XENPAWPi0MFYCise0P-172" value="" style="resizeWidth=0;resizeHeight=0;points=[[0,1],[0.5,1],[1,1]];html=1;whiteSpace=wrap;labelBackgroundColor=none;" vertex="1" parent="v0XENPAWPi0MFYCise0P-168">
          <mxGeometry width="20" height="20" relative="1" as="geometry">
            <mxPoint x="60" as="offset" />
          </mxGeometry>
        </mxCell>
      </root>
    </mxGraphModel>
  </diagram>
</mxfile>
